<svg version="1.0" xmlns="http://www.w3.org/2000/svg" width="1306.667" height="1205.333" viewBox="0 0 980 904"><path fill="orange" d="M22.7 1.4C13 4.1 4.4 12.6 1.5 22.2.2 26.8 0 75.7 0 465.7V904l478.3-.2 478.2-.3 5.7-2.8c11.1-5.5 17.3-15.3 17.3-27.7 0-12-5.9-21.8-16.2-27l-4.8-2.5L510 843l-448.5-.5-.5-410c-.5-382.2-.6-410.3-2.2-413.7-2.5-5.7-10.2-13.3-15.7-15.7C36.7.4 28.7-.3 22.7 1.4z"/><path fill="orange" d="M347.3 47.4c-10.2 3.3-17.9 10.2-22.5 20.2l-2.3 4.9-.3 362.2L322 797h168l-.2-361.8-.3-361.7-2.7-5.7c-3.5-7.6-10.7-15.1-17.7-18.5l-5.6-2.8-56-.2c-44.4-.2-56.9.1-60.2 1.1zM131.4 263.8c-9.5 3.3-16.5 9.8-21.2 19.9l-2.7 5.8v507h168l.3-249c.1-156.4-.1-251.4-.7-255.3-1.9-12.3-8.2-21.2-18.9-26.4l-6.7-3.3-56.5-.2c-51.9-.2-56.9-.1-61.6 1.5zM775.3 263.4c-9.2 2.9-17.6 10.7-22.1 20.4l-2.7 5.7v507h168l.3-250c.2-183.5 0-251.6-.9-256-2.1-11.3-8.6-20-18.6-25.1l-5.8-2.9-57-.2c-45-.2-57.9.1-61.2 1.1zM562 445.3c-9.4 2.6-18.1 10.4-22.7 20.2l-2.8 6-.3 162.7L536 797h168l-.2-163.3-.3-163.2-2.9-5.9c-3.7-7.6-10.1-14-17.4-17.4l-5.7-2.7-55.5-.2c-41.8-.2-56.6.1-60 1z"/></svg>