<svg version="1.0" xmlns="http://www.w3.org/2000/svg" width="1226.667" height="682.667" viewBox="0 0 920 512"><path fill="red" d="M389.6 1.1c-5.3 1.3-9.8 4.2-14.4 9.4-4.9 5.6-5.7 8.2-8.7 30.5-1.4 10.2-2.8 19.5-3.1 20.7L363 64h-25.8c-28.7 0-34.3.8-44.4 6.2C286 73.8 277 83 273.5 90.1c-3.7 7.2-5.5 16.1-5.5 27.6V128h384v-10.3c0-18.1-4-28.9-14.4-39.3C625.1 65.9 617.9 64 582.8 64H557l-.5-2.3c-.2-1.2-1.6-10.5-3-20.6-1.4-10.1-3-20.1-3.7-22.3-1.6-5.3-8.7-13.1-14.6-16L530.5.5 462 .3c-39.6-.1-70.1.3-72.4.8zM522.2 45c.9 6.9 1.9 14 2.1 15.7l.6 3.3h-65c-61.5 0-65-.1-64.5-1.8.2-.9 1.2-7.6 2.1-14.7.9-7.2 1.8-13.6 2-14.3.4-1 13-1.2 60.7-1l60.3.3 1.7 12.5zM299.7 161.4c-10.1 2.7-18.8 12.3-20.3 22.4-1.1 7.1 25.2 294.8 27.7 303.4 2.6 8.9 10 17.2 19.1 21.4l6.3 2.9h255l6.1-2.8c10.4-4.8 18.2-14.4 20.4-25.1 1.8-8.9 27.2-292.8 26.6-298.4-.6-6.8-5-14.7-10.5-18.9-8.7-6.7 1.7-6.3-170-6.2-124.2 0-156.6.3-160.4 1.3zM396 336v112h-47.9l-.5-5.3c-.6-4.7-15.6-215-15.6-217.6 0-.8 9.4-1.1 32-1.1h32v112zm96 0v112h-64V224h64v112zm96-110.9c0 2.6-15 212.9-15.6 217.6l-.5 5.3H524V224h32c22.6 0 32 .3 32 1.1z"/></svg>